<svg width="28" height="22" viewBox="0 0 28 22" fill="none" xmlns="http://www.w3.org/2000/svg">
<ellipse cx="14" cy="11.199" rx="14" ry="10.4427" fill="#E3B873"/>
<path d="M17 7.02161H11C9.34316 7.02161 8.00001 8.02346 8.00001 9.25932V13.7347C8.00001 14.9706 9.34316 15.9725 11 15.9725H17C18.6569 15.9725 20 14.9706 20 13.7347V9.25932C20 8.02346 18.6569 7.02161 17 7.02161Z" stroke="white" stroke-width="1.5"/>
<path d="M16.4 11.2152C16.4741 11.5877 16.3888 11.9681 16.1563 12.3023C15.9238 12.6365 15.5559 12.9075 15.105 13.0768C14.6541 13.2461 14.1431 13.305 13.6447 13.2452C13.1463 13.1854 12.6859 13.0099 12.3289 12.7436C11.972 12.4774 11.7367 12.134 11.6565 11.7622C11.5763 11.3904 11.6553 11.0093 11.8822 10.673C12.1092 10.3366 12.4725 10.0622 12.9206 9.8888C13.3687 9.71538 13.8787 9.65176 14.378 9.70699C14.8874 9.76333 15.3589 9.94036 15.723 10.212C16.0872 10.4835 16.3245 10.8353 16.4 11.2152Z" stroke="white" stroke-width="1.5" stroke-linecap="round" stroke-linejoin="round"/>
</svg>
